HIERARCHY
ROOT Hips
{
  OFFSET 5.84602e-005 68.8428 3.50346
  CHANNELS 6 Xposition Yposition Zposition Zrotation Xrotation Yrotation
  JOINT Spine
  {
    OFFSET 0 8.597 -4.6522
    CHANNELS 3 Zrotation Xrotation Yrotation
    JOINT Spine1
    {
      OFFSET 0 7.8454 0.4098
      CHANNELS 3 Zrotation Xrotation Yrotation
      JOINT Spine2
      {
        OFFSET 0 9.7078 -2.1609
        CHANNELS 3 Zrotation Xrotation Yrotation
        JOINT Neck
        {
          OFFSET 0 21.8761 -0.4549
          CHANNELS 3 Zrotation Xrotation Yrotation
          JOINT Head
          {
            OFFSET 0 12.3537 3.3602
            CHANNELS 3 Zrotation Xrotation Yrotation
            End Site
            {
              OFFSET 0.0001 18.9506 0.5657
            }
          }
        }
        JOINT LeftShoulder
        {
          OFFSET 2.2086 21.1115 7.2329
          CHANNELS 3 Zrotation Xrotation Yrotation
          JOINT LeftArm
          {
            OFFSET 13.1193 3.0282 -4.8998
            CHANNELS 3 Zrotation Xrotation Yrotation
            JOINT LeftForeArm
            {
              OFFSET 27.4081 -0.0973053 -0.2375
              CHANNELS 3 Zrotation Xrotation Yrotation
              JOINT LeftHand
              {
                OFFSET 22.8641 0.0662994 -0.1369
                CHANNELS 3 Zrotation Xrotation Yrotation
                JOINT LeftHandIndex1
                {
                  OFFSET 8.8614 0.775009 2.4612
                  CHANNELS 3 Zrotation Xrotation Yrotation
                  JOINT LeftHandIndex2
                  {
                    OFFSET 3.3146 -0.808304 0.5841
                    CHANNELS 3 Zrotation Xrotation Yrotation
                    JOINT LeftHandIndex3
                    {
                      OFFSET 2.2628 -0.552002 0.3989
                      CHANNELS 3 Zrotation Xrotation Yrotation
                      End Site
                      {
                        OFFSET 1.6102 -0.4807 0.2612
                      }
                    }
                  }
                }
                JOINT LeftHandMiddle1
                {
                  OFFSET 8.9937 0.895004 0.2143
                  CHANNELS 3 Zrotation Xrotation Yrotation
                  JOINT LeftHandMiddle2
                  {
                    OFFSET 4.0984 0.0113983 -0.0242
                    CHANNELS 3 Zrotation Xrotation Yrotation
                    JOINT LeftHandMiddle3
                    {
                      OFFSET 2.2716 0.00689697 -0.0138001
                      CHANNELS 3 Zrotation Xrotation Yrotation
                      End Site
                      {
                        OFFSET 2.0404 -0.1441 0.0027
                      }
                    }
                  }
                }
                JOINT LeftHandRing1
                {
                  OFFSET 8.5234 0.597198 -2.0164
                  CHANNELS 3 Zrotation Xrotation Yrotation
                  JOINT LeftHandRing2
                  {
                    OFFSET 3.7188 -0.188293 -0.2328
                    CHANNELS 3 Zrotation Xrotation Yrotation
                    JOINT LeftHandRing3
                    {
                      OFFSET 2.1191 -0.106598 -0.1332
                      CHANNELS 3 Zrotation Xrotation Yrotation
                      End Site
                      {
                        OFFSET 1.8737 -0.2304 -0.0886
                      }
                    }
                  }
                }
                JOINT LeftHandPinky1
                {
                  OFFSET 7.9094 -0.601089 -3.4825
                  CHANNELS 3 Zrotation Xrotation Yrotation
                  JOINT LeftHandPinky2
                  {
                    OFFSET 2.2874 -0.477005 -0.6314
                    CHANNELS 3 Zrotation Xrotation Yrotation
                    JOINT LeftHandPinky3
                    {
                      OFFSET 1.6774 -0.349396 -0.4633
                      CHANNELS 3 Zrotation Xrotation Yrotation
                      End Site
                      {
                        OFFSET 1.4888 -0.4091 -0.3416
                      }
                    }
                  }
                }
                JOINT LeftHandThumb1
                {
                  OFFSET 1.833 -1.3875 1.3896
                  CHANNELS 3 Zrotation Xrotation Yrotation
                  JOINT LeftHandThumb2
                  {
                    OFFSET 3.4129 -1.121 2.5732
                    CHANNELS 3 Zrotation Xrotation Yrotation
                    JOINT LeftHandThumb3
                    {
                      OFFSET 2.2474 -0.804199 1.6192
                      CHANNELS 3 Zrotation Xrotation Yrotation
                      End Site
                      {
                        OFFSET 1.6527 -0.5689 1.1317
                      }
                    }
                  }
                }
              }
            }
          }
        }
        JOINT RightShoulder
        {
          OFFSET -2.2086 21.1115 7.2329
          CHANNELS 3 Zrotation Xrotation Yrotation
          JOINT RightArm
          {
            OFFSET -13.1216 3.0287 -4.9007
            CHANNELS 3 Zrotation Xrotation Yrotation
            JOINT RightForeArm
            {
              OFFSET -27.4081 -0.0973053 -0.2375
              CHANNELS 3 Zrotation Xrotation Yrotation
              JOINT RightHand
              {
                OFFSET -22.8641 0.0664063 -0.1369
                CHANNELS 3 Zrotation Xrotation Yrotation
                JOINT RightHandIndex1
                {
                  OFFSET -8.8614 0.774994 2.4612
                  CHANNELS 3 Zrotation Xrotation Yrotation
                  JOINT RightHandIndex2
                  {
                    OFFSET -3.3146 -0.808304 0.5841
                    CHANNELS 3 Zrotation Xrotation Yrotation
                    JOINT RightHandIndex3
                    {
                      OFFSET -2.2628 -0.552002 0.3989
                      CHANNELS 3 Zrotation Xrotation Yrotation
                      End Site
                      {
                        OFFSET -1.6102 -0.4807 0.2612
                      }
                    }
                  }
                }
                JOINT RightHandMiddle1
                {
                  OFFSET -8.9937 0.894989 0.2143
                  CHANNELS 3 Zrotation Xrotation Yrotation
                  JOINT RightHandMiddle2
                  {
                    OFFSET -4.0984 0.0113983 -0.0242
                    CHANNELS 3 Zrotation Xrotation Yrotation
                    JOINT RightHandMiddle3
                    {
                      OFFSET -2.2716 0.00691223 -0.0138001
                      CHANNELS 3 Zrotation Xrotation Yrotation
                      End Site
                      {
                        OFFSET -2.0404 -0.1441 0.0027
                      }
                    }
                  }
                }
                JOINT RightHandRing1
                {
                  OFFSET -8.5234 0.597198 -2.0164
                  CHANNELS 3 Zrotation Xrotation Yrotation
                  JOINT RightHandRing2
                  {
                    OFFSET -3.7188 -0.188309 -0.2328
                    CHANNELS 3 Zrotation Xrotation Yrotation
                    JOINT RightHandRing3
                    {
                      OFFSET -2.1191 -0.106598 -0.1332
                      CHANNELS 3 Zrotation Xrotation Yrotation
                      End Site
                      {
                        OFFSET -1.8737 -0.2304 -0.0886
                      }
                    }
                  }
                }
                JOINT RightHandPinky1
                {
                  OFFSET -7.9094 -0.601105 -3.4825
                  CHANNELS 3 Zrotation Xrotation Yrotation
                  JOINT RightHandPinky2
                  {
                    OFFSET -2.2874 -0.477005 -0.6314
                    CHANNELS 3 Zrotation Xrotation Yrotation
                    JOINT RightHandPinky3
                    {
                      OFFSET -1.6774 -0.349396 -0.4633
                      CHANNELS 3 Zrotation Xrotation Yrotation
                      End Site
                      {
                        OFFSET -1.4888 -0.4091 -0.3416
                      }
                    }
                  }
                }
                JOINT RightHandThumb1
                {
                  OFFSET -1.833 -1.38751 1.3896
                  CHANNELS 3 Zrotation Xrotation Yrotation
                  JOINT RightHandThumb2
                  {
                    OFFSET -3.41299 -1.12099 2.5732
                    CHANNELS 3 Zrotation Xrotation Yrotation
                    JOINT RightHandThumb3
                    {
                      OFFSET -2.24741 -0.804108 1.6192
                      CHANNELS 3 Zrotation Xrotation Yrotation
                      End Site
                      {
                        OFFSET -1.6527 -0.5689 1.1317
                      }
                    }
                  }
                }
              }
            }
          }
        }
      }
    }
  }
  JOINT RightUpLeg
  {
    OFFSET -9.1966 3.8861 -0.7581
    CHANNELS 3 Zrotation Xrotation Yrotation
    JOINT RightLeg
    {
      OFFSET -0.7359 -41.0265 0
      CHANNELS 3 Zrotation Xrotation Yrotation
      JOINT RightFoot
      {
        OFFSET 0 -40.2855 0
        CHANNELS 3 Zrotation Xrotation Yrotation
        JOINT RightToeBase
        {
          OFFSET 0 -5.6122 11.7359
          CHANNELS 3 Zrotation Xrotation Yrotation
          End Site
          {
            OFFSET 0 0 7.8731
          }
        }
      }
    }
  }
  JOINT LeftUpLeg
  {
    OFFSET 9.1965 3.8864 -0.7581
    CHANNELS 3 Zrotation Xrotation Yrotation
    JOINT LeftLeg
    {
      OFFSET 0.7359 -41.0268 0
      CHANNELS 3 Zrotation Xrotation Yrotation
      JOINT LeftFoot
      {
        OFFSET 0 -40.2855 0
        CHANNELS 3 Zrotation Xrotation Yrotation
        JOINT LeftToeBase
        {
          OFFSET 0 -5.6122 11.7359
          CHANNELS 3 Zrotation Xrotation Yrotation
          End Site
          {
            OFFSET 0 0 7.8731
          }
        }
      }
    }
  }
}
MOTION
Frames:	4
Frame Time:	0.0333333
5.84602e-005 68.8428 3.50346 0 0 -0 0 0 -0 0 0 -0 0 0 -0 0 0 -0 0 0 -0 0 0 -0 0 0 -0 0 0 -0 0 0 -0 0 0 -0 0 0 -0 0 0 -0 0 0 -0 -0.0146107 -8.87603e-005 -2.63497e-007 2.99804e-018 -2.42657e-020 -1.42182e-022 0 0 -0 -0.0187562 -0.001176 5.858e-005 5.06224e-018 3.88251e-019 1.21329e-020 0 0 -0 -0.012269 -0.00324817 0.000675346 -1.74678e-018 3.88251e-019 -0 0 0 -0 0 0 -0 0 0 -0 0 0 -0 0 0 -0 0 0 -0 0 0 -0 0 0 -0 0 0 -0 0 0 -0 0 0 -0 0.0149955 -9.10982e-005 2.64101e-007 -9.69331e-018 1.21329e-020 -4.7394e-023 0 0 -0 0.0189956 -0.00119102 -5.96516e-005 -5.41541e-019 0 2.42657e-020 0 0 -0 0.0122698 -0.00324857 -0.000673756 -2.00796e-019 0 -1.94126e-019 0 0 -0 0 0 -0 0 0 -0 3.39842 1.33031 -0.0637918 -5.65207e-008 0.834868 -0.000436188 -3.39935 -2.16518 -0.0642563 -8.89002e-024 -1.18485e-023 -1.48106e-024 -3.39844 1.35642 0.0640283 -3.18788e-007 0.782166 -0.000588827 3.39931 -2.13858 0.0634662 1.1399e-023 0 -0 
1.62989 25.4388 2.54736 0 40.9966 -0 0.264995 -1.92018 -0.340674 0.518994 -3.84185 -0.673021 0.518994 -3.84186 -0.673021 2.62186e-006 -0.187133 -2.95912e-006 3.17132e-007 -0.428404 -3.10274e-008 8.83068 12.1616 27.8472 -72.3751 31.6533 -23.2992 -21.7033 15.5556 -48.2502 10.9826 -14.2735 5.52422 5.0062e-007 1.49764e-006 -1.89155e-006 5.85124e-008 6.7748e-008 -1.19758e-006 -7.91946e-008 9.15121e-007 -2.48584e-007 5.0062e-007 1.49764e-006 -1.89155e-006 -0.0146281 -8.94415e-005 -1.41542e-006 4.43365e-007 1.42999e-006 -6.9379e-007 5.0062e-007 1.49764e-006 -1.89155e-006 -0.0187488 -0.00117588 5.7349e-005 -7.91843e-008 9.15163e-007 -2.48433e-007 5.0062e-007 1.49764e-006 -1.89155e-006 -0.0122711 -0.0032479 0.000675585 -7.91882e-008 9.15151e-007 -2.48484e-007 5.0062e-007 1.49764e-006 -1.89155e-006 5.85124e-008 6.7748e-008 -1.19758e-006 -7.91946e-008 9.15121e-007 -2.48584e-007 -9.77535 12.0512 -28.494 72.3381 31.6616 23.2889 21.7444 15.5889 48.4151 -10.3487 -13.942 -5.7358 -7.95139e-016 0 -3.18055e-015 -6.95746e-016 0 -0 -1.39149e-015 -3.97569e-016 -1.59028e-015 -7.95139e-016 0 -3.18055e-015 0.0149821 -9.0297e-005 2.5726e-009 2.98177e-016 7.95139e-016 1.59028e-015 -7.95139e-016 0 -3.18055e-015 0.0190099 -0.00119216 -5.85895e-005 -1.2921e-015 3.97569e-016 -1.59028e-015 -7.95139e-016 0 -3.18055e-015 0.0122768 -0.00325006 -0.000675742 -5.96354e-016 7.95139e-016 -1.59028e-015 -7.95139e-016 0 -3.18055e-015 -6.95746e-016 0 -0 -1.39149e-015 -3.97569e-016 -1.59028e-015 -25.441 -37.7947 -19.1784 -165.1 85.5617 163.026 32.9024 44.9934 -34.8571 6.90899e-007 9.98682e-007 2.24908e-006 25.4163 -37.7957 19.155 165.338 85.5691 -163.26 -32.9206 44.9741 34.869 6.91057e-007 -9.98883e-007 2.24897e-006 
1.62989 25.2695 3.1485 0 39.2383 -0 0.261671 -1.44716 -0.344089 0.514887 -2.89587 -0.681889 0.514887 -2.89588 -0.681888 -0.0390525 -0.152463 0.00199964 -3.4173e-007 -0.846707 -1.9484e-008 8.7499 11.426 27.7162 -72.3751 31.6533 -23.2992 -21.4841 15.3132 -47.7147 10.7943 -14.4549 5.20938 -1.39149e-015 7.95139e-016 -1.59028e-015 -2.18663e-015 0 -3.18055e-015 -2.78299e-015 7.95139e-016 -3.18055e-015 -1.39149e-015 7.95139e-016 -1.59028e-015 -0.0146173 -8.86611e-005 1.68691e-006 -5.96354e-016 7.95139e-016 -0 -1.39149e-015 7.95139e-016 -1.59028e-015 -0.0187289 -0.0011739 5.77151e-005 1.19271e-015 0 -1.59028e-015 -1.39149e-015 7.95139e-016 -1.59028e-015 -0.0122737 -0.00324956 0.000677146 5.20758e-007 5.13967e-007 -4.55519e-007 -1.39149e-015 7.95139e-016 -1.59028e-015 -2.18663e-015 0 -3.18055e-015 -2.78299e-015 7.95139e-016 -3.18055e-015 -9.67834 11.322 -28.3555 72.3381 31.6616 23.2889 21.5279 15.3489 47.8856 -10.1868 -14.1322 -5.41869 -3.62207e-008 -2.85425e-007 3.14243e-007 -3.62206e-008 -2.85425e-007 3.14243e-007 -3.62207e-008 -2.85425e-007 3.14243e-007 -3.62207e-008 -2.85425e-007 3.14243e-007 0.0149952 -9.22042e-005 6.49637e-007 -3.62239e-008 -2.85384e-007 3.1428e-007 -3.62207e-008 -2.85425e-007 3.14243e-007 0.0189949 -0.00119128 -5.9159e-005 -3.62217e-008 -2.85373e-007 3.1429e-007 -3.62207e-008 -2.85425e-007 3.14243e-007 0.0122788 -0.00324886 -0.000675954 -3.62129e-008 -2.85391e-007 3.14274e-007 -3.62207e-008 -2.85425e-007 3.14243e-007 -3.62206e-008 -2.85425e-007 3.14243e-007 -3.62207e-008 -2.85425e-007 3.14243e-007 -25.2157 -35.4755 -18.5928 -163.217 86.1793 161.166 32.3053 45.1326 -34.3949 -3.57812e-015 6.36111e-015 -0 25.1921 -35.4777 18.5696 163.507 86.1877 -161.451 -32.3232 45.1155 34.4063 3.18055e-015 3.18055e-015 -3.97569e-015 
1.62989 25.1072 3.75238 0 37.4732 -0 0.258324 -0.972496 -0.347411 0.510853 -1.94655 -0.690579 0.510853 -1.94656 -0.690579 -0.0781029 -0.117929 0.00401011 2.50502e-007 -1.26552 -1.45633e-007 8.66757 10.69 27.5844 -72.3751 31.6533 -23.2992 -21.2626 15.0728 -47.1786 10.6048 -14.6355 4.89359 1.15295e-014 3.18055e-015 -0 1.15295e-014 4.77083e-015 -0 1.37161e-014 4.77083e-015 -0 1.15295e-014 3.18055e-015 -0 -0.0146148 -8.6731e-005 -1.36764e-006 -1.39149e-015 0 -1.59028e-015 1.15295e-014 3.18055e-015 -0 -0.0187373 -0.00117389 5.72056e-005 1.98785e-015 1.59028e-015 -0 1.15295e-014 3.18055e-015 -0 -0.0122606 -0.0032471 0.00067754 1.98785e-016 0 -0 1.15295e-014 3.18055e-015 -0 1.15295e-014 4.77083e-015 -0 1.37161e-014 4.77083e-015 -0 -9.57969 10.5925 -28.216 72.3381 31.6616 23.2889 21.3092 15.1108 47.3555 -10.0235 -14.3215 -5.10069 4.42522e-007 -1.88227e-007 1.09499e-007 -7.18398e-008 -5.71041e-007 6.2843e-007 -3.59199e-008 -2.85521e-007 3.14215e-007 4.42522e-007 -1.88227e-007 1.09499e-007 0.0150035 -9.18851e-005 1.06445e-006 -5.15637e-007 -3.82739e-007 5.18981e-007 4.42522e-007 -1.88227e-007 1.09499e-007 0.0189981 -0.00119234 -5.83401e-005 -3.59208e-008 -2.85468e-007 3.14262e-007 4.42522e-007 -1.88227e-007 1.09499e-007 0.0122661 -0.00324702 -0.000673694 -3.59121e-008 -2.85486e-007 3.14247e-007 4.42522e-007 -1.88227e-007 1.09499e-007 -7.18398e-008 -5.71041e-007 6.2843e-007 -3.59199e-008 -2.85521e-007 3.14215e-007 -25.0212 -33.1387 -18.0293 -160.615 86.7915 158.586 31.7053 45.2682 -33.9297 1.27222e-014 3.18055e-015 -3.18055e-015 24.9986 -33.1423 18.0062 160.973 86.8012 -158.939 -31.7231 45.2533 33.9406 -5.58101e-006 -3.44731e-008 7.34019e-007 
